<svg xmlns="http://www.w3.org/2000/svg" version="1.1" xmlns:xlink="http://www.w3.org/1999/xlink" xmlns:svgjs="http://svgjs.dev/svgjs" width="1500" height="1500" viewBox="0 0 1500 1500"><rect width="1500" height="1500" fill="#ffffff"></rect><g transform="matrix(0.6666666666666666,0,0,0.6666666666666666,249.39393939393938,438.5856950067477)"><svg viewBox="0 0 396 247" data-background-color="#ffffff" preserveAspectRatio="xMidYMid meet" height="935" width="1500" xmlns="http://www.w3.org/2000/svg" xmlns:xlink="http://www.w3.org/1999/xlink"><g id="tight-bounds" transform="matrix(1,0,0,1,0.2400000000000091,-0.09999999999999432)"><svg viewBox="0 0 395.52 247.2" height="247.2" width="395.52"><g><svg></svg></g><g><svg viewBox="0 0 395.52 247.2" height="247.2" width="395.52"><g transform="matrix(1,0,0,1,75.54432,65.32623908285566)"><svg viewBox="0 0 244.43135999999998 116.54752183428866" height="116.54752183428866" width="244.43135999999998"><g><svg viewBox="0 0 244.43135999999998 116.54752183428866" height="116.54752183428866" width="244.43135999999998"><g><svg viewBox="0 0 244.43135999999998 116.54752183428866" height="116.54752183428866" width="244.43135999999998"><g><svg viewBox="0 0 244.43135999999998 116.54752183428866" height="116.54752183428866" width="244.43135999999998"><g id="textblocktransform"><svg viewBox="0 0 244.43135999999998 116.54752183428866" height="116.54752183428866" width="244.43135999999998" id="textblock"><g><svg viewBox="0 0 244.43135999999998 116.54752183428866" height="116.54752183428866" width="244.43135999999998"><g transform="matrix(1,0,0,1,0,0)"><svg width="244.43135999999998" viewBox="2.4 -35.9 95.94 45.75" height="116.54752183428866" data-palette-color="#492d92"><path d="M30.1-2.8L30.15-2.65Q26.1 0.4 19.7 0.4L19.7 0.4Q11.9 0.4 7.15-4.23 2.4-8.85 2.4-16.9L2.4-16.9Q2.4-24.55 7.13-29.43 11.85-34.3 19.05-34.3L19.05-34.3Q25-34.3 28.9-32L28.9-32 28.9-27.65Q24.8-30.35 19.4-30.35L19.4-30.35Q13.75-30.35 10.2-26.68 6.65-23 6.65-16.9L6.65-16.9Q6.65-10.65 10.15-7.08 13.65-3.5 19.8-3.5L19.8-3.5Q23.2-3.5 26.1-4.85L26.1-4.85 26.1-15.35 18.7-15.35 18.7-18.9 30.15-18.9 30.15-2.8 30.1-2.8ZM59.45-12.6L59.45-12.6Q59.45-6.95 56.25-3.25 53.05 0.45 47.45 0.45L47.45 0.45Q42 0.45 38.82-3.23 35.65-6.9 35.65-12.5L35.65-12.5Q35.65-18.15 38.92-21.93 42.2-25.7 47.45-25.7L47.45-25.7Q53.2-25.7 56.32-22 59.45-18.3 59.45-12.6ZM39.75-12.55L39.75-12.55Q39.75-8.6 41.85-5.83 43.95-3.05 47.45-3.05L47.45-3.05Q51.25-3.05 53.3-5.78 55.35-8.5 55.35-12.55L55.35-12.55Q55.35-16.75 53.4-19.48 51.45-22.2 47.45-22.2L47.45-22.2Q43.85-22.2 41.8-19.4 39.75-16.6 39.75-12.55ZM69.15-3.85L69.15 9.85 65.25 9.85 65.25-25.35 69.15-25.35 69.15-21.5Q71.8-25.75 77-25.75L77-25.75Q82.05-25.75 84.92-22.08 87.8-18.4 87.8-12.9L87.8-12.9Q87.8-7.05 84.77-3.33 81.75 0.4 76.9 0.4L76.9 0.4Q71.9 0.4 69.15-3.85L69.15-3.85ZM69.15-12.65L69.15-12.65Q69.15-7.8 71.4-5.5 73.65-3.2 76.4-3.2L76.4-3.2Q79.59-3.2 81.65-5.73 83.7-8.25 83.7-12.9L83.7-12.9Q83.7-17.05 81.7-19.6 79.7-22.15 76.65-22.15 73.59-22.15 71.37-19.93 69.15-17.7 69.15-12.65ZM97.74-25.35L97.74 0 93.79 0 93.79-25.35 97.74-25.35ZM97.59-35.15Q98.34-34.4 98.34-33.3 98.34-32.2 97.59-31.48 96.84-30.75 95.74-30.75 94.64-30.75 93.92-31.48 93.19-32.2 93.19-33.3 93.19-34.4 93.92-35.15 94.64-35.9 95.74-35.9 96.84-35.9 97.59-35.15Z" opacity="1" transform="matrix(1,0,0,1,0,0)" fill="#492d92" class="wordmark-text-0" data-fill-palette-color="primary" id="text-0"></path></svg></g></svg></g></svg></g></svg></g></svg></g></svg></g></svg></g><g><path d="M0 123.6c0-68.262 55.338-123.6 123.6-123.6 41.386 0 78.02 20.34 100.453 51.569l-6.546 0c-21.634-28.162-55.65-46.314-93.907-46.314-65.36 0-118.345 52.985-118.345 118.345 0 65.36 52.985 118.345 118.345 118.345 38.256 0 72.273-18.152 93.907-46.314l6.546 0c-22.433 31.229-59.068 51.569-100.453 51.569-68.262 0-123.6-55.338-123.6-123.6z" fill="#2c3ad1" stroke="transparent" data-fill-palette-color="tertiary"></path></g></svg></g><defs></defs></svg><rect width="395.52" height="247.2" fill="none" stroke="none" visibility="hidden"></rect></g></svg></g></svg>